<svg width="64" height="64" viewBox="0 0 64 64" fill="none" xmlns="http://www.w3.org/2000/svg">
<g clip-path="url(#clip0_4_172)">
<path d="M32 64C49.6731 64 64 49.6731 64 32C64 14.3269 49.6731 0 32 0C14.3269 0 0 14.3269 0 32C0 49.6731 14.3269 64 32 64Z" fill="#506A6C"/>
<path d="M-2 33L64 32" stroke="#7A9A9C" stroke-width="2"/>
<path d="M42 10H46L44 6L42 10Z" fill="white"/>
<path d="M49.6569 11.5147L52.4853 14.3431L53.8995 10.1005L49.6569 11.5147Z" fill="white"/>
<path d="M54 18V22L58 20L54 18Z" fill="white"/>
<path d="M52.4853 25.6569L49.6569 28.4853L53.8995 29.8995L52.4853 25.6569Z" fill="white"/>
<path d="M46 30H42L44 34L46 30Z" fill="white"/>
<path d="M38.3431 28.4853L35.5147 25.6569L34.1005 29.8995L38.3431 28.4853Z" fill="white"/>
<path d="M34 22V18L30 20L34 22Z" fill="white"/>
<path d="M35.5147 14.3431L38.3431 11.5147L34.1005 10.1005L35.5147 14.3431Z" fill="white"/>
<path d="M44 28C48.4183 28 52 24.4183 52 20C52 15.5817 48.4183 12 44 12C39.5817 12 36 15.5817 36 20C36 24.4183 39.5817 28 44 28Z" fill="white"/>
<path d="M39.997 37.1055H43.1495C46.1532 37.1055 48.5887 34.8006 48.5887 31.957C48.5887 30.2144 47.6717 28.6771 46.2724 27.7457C46.1302 23.9446 42.8389 20.9019 38.7883 20.9019C36.7497 20.9019 34.9033 21.6747 33.5516 22.9246C32.1263 20.2373 29.1966 18.3889 25.8033 18.3889C21.0132 18.3889 17.1303 22.0643 17.1303 26.5984C17.1303 26.8944 17.1488 27.186 17.1808 27.4738C15.5284 28.3574 14.4109 30.0324 14.4109 31.957C14.4109 34.8002 16.846 37.1055 19.8501 37.1055H23.0026" fill="white"/>
<path d="M41.9391 42.6146V41.6661C41.9391 40.7716 41.1729 40.0464 40.2279 40.0464H22.7717C21.8267 40.0464 21.0605 40.7716 21.0605 41.6661V42.6146C21.0605 43.5094 21.8267 44.2343 22.7717 44.2343C21.8267 44.2343 21.0605 44.9596 21.0605 45.8541V46.8026C21.0605 47.6974 21.8267 48.4223 22.7717 48.4223H40.2275C41.1725 48.4223 41.9387 47.6971 41.9387 46.8026V45.8541C41.9387 44.9596 41.1725 44.2343 40.2275 44.2343C41.1725 44.2343 41.9391 43.5091 41.9391 42.6146V41.6661C41.9391 40.7716 41.1725 40.0464 40.2275 40.0464C41.1729 44.2347 41.9391 43.5094 41.9391 42.6146Z" fill="#F0F0F0"/>
<path d="M24.579 34.353C25.7124 34.353 26.6312 33.4833 26.6312 32.4104C26.6312 31.3376 25.7124 30.4679 24.579 30.4679C23.4456 30.4679 22.5268 31.3376 22.5268 32.4104C22.5268 33.4833 23.4456 34.353 24.579 34.353Z" fill="#F0F0F0"/>
<path d="M38.4206 31.8602C39.554 31.8602 40.4728 30.9905 40.4728 29.9176C40.4728 28.8448 39.554 27.9751 38.4206 27.9751C37.2872 27.9751 36.3684 28.8448 36.3684 29.9176C36.3684 30.9905 37.2872 31.8602 38.4206 31.8602Z" fill="#F0F0F0"/>
<path d="M28.0877 27.7107C29.2211 27.7107 30.1399 26.841 30.1399 25.7681C30.1399 24.6953 29.2211 23.8256 28.0877 23.8256C26.9543 23.8256 26.0355 24.6953 26.0355 25.7681C26.0355 26.841 26.9543 27.7107 28.0877 27.7107Z" fill="#F0F0F0"/>
<path d="M46.6733 27.5411C46.4223 23.5849 42.9966 20.513 38.7883 20.513C36.8947 20.513 35.0947 21.1446 33.6633 22.3012C32.0397 19.6353 29.0758 18 25.8033 18C20.7942 18 16.7194 21.857 16.7194 26.5984C16.7194 26.815 16.7289 27.0383 16.7478 27.2654C15.046 28.2753 14 30.0502 14 31.957C14 35.0102 16.6241 37.4944 19.8497 37.4944H23.0026C23.2294 37.4944 23.4134 37.3206 23.4134 37.1055C23.4134 36.8905 23.2294 36.7167 23.0026 36.7167H19.8497C17.0773 36.7167 14.8217 34.5816 14.8217 31.957C14.8217 30.2455 15.8032 28.6572 17.3829 27.8126C17.5255 27.7363 17.6069 27.587 17.5896 27.433C17.5576 27.1475 17.5411 26.8668 17.5411 26.5984C17.5411 22.286 21.2474 18.7778 25.8033 18.7778C28.9427 18.7778 31.7705 20.4337 33.1843 23.0992C33.243 23.21 33.3544 23.2878 33.4838 23.3084C33.6128 23.3302 33.7455 23.2901 33.8388 23.203C35.172 21.9702 36.9296 21.2912 38.7883 21.2912C42.6191 21.2912 45.7263 24.1325 45.8619 27.7597C45.8664 27.8814 45.9309 27.9942 46.0361 28.0642C47.3775 28.9571 48.1783 30.4127 48.1783 31.9574C48.1783 34.582 45.9227 36.717 43.1499 36.717H39.9974C39.7702 36.717 39.5866 36.8909 39.5866 37.1059C39.5866 37.321 39.7702 37.4948 39.9974 37.4948H43.1499C46.3759 37.4948 49 35.0106 49 31.9574C49 30.2233 48.1339 28.5872 46.6733 27.5411Z" fill="#CCCCCC"/>
<path d="M40.2279 39.6571H35.5171V33.9975L37.2316 31.9593C37.5849 32.1448 37.9904 32.251 38.4218 32.251C39.7801 32.251 40.8849 31.2053 40.8849 29.9196C40.8849 28.6339 39.7801 27.5882 38.4218 27.5882C37.0635 27.5882 35.9588 28.6339 35.9588 29.9196C35.9588 30.5165 36.1991 31.0598 36.5902 31.4728L34.785 33.6191C34.727 33.688 34.6954 33.7735 34.6954 33.8614V39.6571H31.8133V29.7088C31.8133 29.6209 31.7816 29.5354 31.7237 29.4665L29.9184 27.3202C30.3096 26.9072 30.5499 26.3639 30.5499 25.767C30.5499 24.4813 29.4451 23.4356 28.0869 23.4356C26.7286 23.4356 25.6238 24.4813 25.6238 25.767C25.6238 27.0527 26.7286 28.0984 28.0869 28.0984C28.5187 28.0984 28.9242 27.9918 29.2775 27.8067L30.9916 29.8449V39.6575H28.3038V36.353C28.3038 36.2648 28.2721 36.1796 28.2142 36.1108L26.4093 33.9648C26.8005 33.5518 27.0408 33.0086 27.0408 32.4116C27.0408 31.1259 25.936 30.0802 24.5778 30.0802C23.2195 30.0802 22.1147 31.1259 22.1147 32.4116C22.1147 33.6973 23.2195 34.743 24.5778 34.743C25.0096 34.743 25.4151 34.6369 25.768 34.4513L27.4821 36.4891V39.6575H22.7717C21.6016 39.6575 20.6492 40.5585 20.6492 41.6665V42.6146C20.6492 43.2816 20.998 43.8692 21.5276 44.2347C20.9976 44.6003 20.6492 45.1879 20.6492 45.8545V46.803C20.6492 47.4695 20.998 48.0572 21.5276 48.4227C20.9976 48.7883 20.6492 49.3759 20.6492 50.0429V50.9914C20.6492 52.0989 21.6012 53 22.7717 53H40.2279C41.398 53 42.35 52.0989 42.35 50.9914V50.0429C42.35 49.3759 42.0011 48.7883 41.4716 48.4227C42.0011 48.0572 42.35 47.4695 42.35 46.803V45.8545C42.35 45.1879 42.0011 44.6003 41.4716 44.2347C42.0011 43.8692 42.35 43.2816 42.35 42.6146V41.6665C42.35 40.5585 41.398 39.6571 40.2279 39.6571ZM38.4222 28.3659C39.3273 28.3659 40.0636 29.0628 40.0636 29.9196C40.0636 30.7763 39.3273 31.4732 38.4222 31.4732C37.5171 31.4732 36.7809 30.7763 36.7809 29.9196C36.7809 29.0628 37.5171 28.3659 38.4222 28.3659ZM26.4459 25.767C26.4459 24.9102 27.1822 24.2133 28.0873 24.2133C28.9924 24.2133 29.7286 24.9102 29.7286 25.767C29.7286 26.6237 28.9924 27.3206 28.0873 27.3206C27.1822 27.3206 26.4459 26.6237 26.4459 25.767ZM22.9364 32.4112C22.9364 31.5545 23.6727 30.8576 24.5778 30.8576C25.4829 30.8576 26.2191 31.5545 26.2191 32.4112C26.2191 33.2679 25.4829 33.9648 24.5778 33.9648C23.6727 33.9648 22.9364 33.2679 22.9364 32.4112ZM41.5283 50.0432V50.9918C41.5283 51.6704 40.9449 52.2226 40.2279 52.2226H22.7717C22.0543 52.2226 21.4709 51.6704 21.4709 50.9918V50.0432C21.4709 49.3646 22.0543 48.812 22.7717 48.812H40.2279C40.9449 48.8116 41.5283 49.3638 41.5283 50.0432ZM41.5283 42.6146C41.5283 43.2936 40.9449 43.8458 40.2279 43.8458H37.1441C36.9169 43.8458 36.7332 44.0197 36.7332 44.2347C36.7332 44.4498 36.9169 44.6236 37.1441 44.6236H40.2279C40.9449 44.6236 41.5283 45.1759 41.5283 45.8545V46.803C41.5283 47.4816 40.9449 48.0338 40.2279 48.0338H22.7717C22.0543 48.0338 21.4709 47.4816 21.4709 46.803V45.8545C21.4709 45.1759 22.0543 44.6236 22.7717 44.6236H32.1839C32.4111 44.6236 32.5947 44.4498 32.5947 44.2347C32.5947 44.0197 32.4111 43.8458 32.1839 43.8458H22.7717C22.0543 43.8458 21.4709 43.2936 21.4709 42.6146V41.6665C21.4709 40.9875 22.0543 40.4352 22.7717 40.4352H40.2279C40.9449 40.4352 41.5283 40.9875 41.5283 41.6665V42.6146Z" fill="#CCCCCC"/>
<path d="M34.1444 44.6236H35.3244C35.5516 44.6236 35.7353 44.4498 35.7353 44.2347C35.7353 44.0197 35.5516 43.8458 35.3244 43.8458H34.1444C33.9172 43.8458 33.7336 44.0197 33.7336 44.2347C33.7336 44.4498 33.9172 44.6236 34.1444 44.6236Z" fill="#CCCCCC"/>
<path d="M24.1016 45.94H23.3974C23.1706 45.94 22.9865 46.1139 22.9865 46.3289C22.9865 46.544 23.1706 46.7178 23.3974 46.7178H24.1016C24.3284 46.7178 24.5124 46.544 24.5124 46.3289C24.5124 46.1139 24.3284 45.94 24.1016 45.94Z" fill="#CCCCCC"/>
<path d="M25.9303 50.87H26.6345C26.8613 50.87 27.0453 50.6962 27.0453 50.4811C27.0453 50.2661 26.8613 50.0922 26.6345 50.0922H25.9303C25.7035 50.0922 25.5194 50.2661 25.5194 50.4811C25.5194 50.6962 25.7035 50.87 25.9303 50.87Z" fill="#CCCCCC"/>
<path d="M28.4632 50.87H29.1674C29.3942 50.87 29.5782 50.6962 29.5782 50.4811C29.5782 50.2661 29.3942 50.0922 29.1674 50.0922H28.4632C28.2364 50.0922 28.0523 50.2661 28.0523 50.4811C28.0523 50.6962 28.2364 50.87 28.4632 50.87Z" fill="#CCCCCC"/>
<path d="M33.7336 46.3289C33.7336 46.544 33.9172 46.7178 34.1444 46.7178H39.6963C39.9235 46.7178 40.1071 46.544 40.1071 46.3289C40.1071 46.1139 39.9235 45.94 39.6963 45.94H33.7336C33.9172 45.94 33.7336 46.1139 33.7336 46.3289Z" fill="#CCCCCC"/>
<path d="M34.1444 50.87H39.6963C39.9235 50.87 40.1071 50.6962 40.1071 50.4811C40.1071 50.2661 39.9235 50.0922 39.6963 50.0922H34.1444C33.9172 50.0922 33.7336 50.2661 33.7336 50.4811C33.7336 50.6962 33.9172 50.87 34.1444 50.87Z" fill="#CCCCCC"/>
<path d="M24.1016 41.7874H23.3974C23.1706 41.7874 22.9865 41.9613 22.9865 42.1763C22.9865 42.3914 23.1706 42.5652 23.3974 42.5652H24.1016C24.3284 42.5652 24.5124 42.3914 24.5124 42.1763C24.5124 41.9613 24.3284 41.7874 24.1016 41.7874Z" fill="#CCCCCC"/>
<path d="M26.6345 41.7874H25.9303C25.7035 41.7874 25.5194 41.9613 25.5194 42.1763C25.5194 42.3914 25.7035 42.5652 25.9303 42.5652H26.6345C26.8613 42.5652 27.0453 42.3914 27.0453 42.1763C27.0453 41.9613 26.8613 41.7874 26.6345 41.7874Z" fill="#CCCCCC"/>
<path d="M29.1674 41.7874H28.4632C28.2364 41.7874 28.0523 41.9613 28.0523 42.1763C28.0523 42.3914 28.2364 42.5652 28.4632 42.5652H29.1674C29.3942 42.5652 29.5782 42.3914 29.5782 42.1763C29.5782 41.9613 29.3942 41.7874 29.1674 41.7874Z" fill="#CCCCCC"/>
<path d="M39.6959 41.7874H34.1444C33.9172 41.7874 33.7336 41.9613 33.7336 42.1763C33.7336 42.3914 33.9172 42.5652 34.1444 42.5652H39.6963C39.9235 42.5652 40.1071 42.3914 40.1071 42.1763C40.1071 41.9613 39.9231 41.7874 39.6959 41.7874Z" fill="#CCCCCC"/>
</g>
<defs>
<clipPath id="clip0_4_172">
<rect width="64" height="64" fill="white"/>
</clipPath>
</defs>
</svg>
