<svg width="154" height="28" viewBox="0 0 154 28" fill="none" xmlns="http://www.w3.org/2000/svg">
<g clip-path="url(#clip0_11_3)">
<path d="M12 4H16L14 0L12 4Z" fill="white"/>
<path d="M19.6569 5.51471L22.4853 8.34313L23.8995 4.10049L19.6569 5.51471Z" fill="white"/>
<path d="M24 12V16L28 14L24 12Z" fill="white"/>
<path d="M22.4853 19.6569L19.6569 22.4853L23.8995 23.8995L22.4853 19.6569Z" fill="white"/>
<path d="M16 24H12L14 28L16 24Z" fill="white"/>
<path d="M8.34314 22.4853L5.51471 19.6569L4.1005 23.8995L8.34314 22.4853Z" fill="white"/>
<path d="M4 16L4 12L0 14L4 16Z" fill="white"/>
<path d="M5.51472 8.34314L8.34315 5.51471L4.10051 4.1005L5.51472 8.34314Z" fill="white"/>
<path d="M14 22C18.4183 22 22 18.4183 22 14C22 9.58172 18.4183 6 14 6C9.58172 6 6 9.58172 6 14C6 18.4183 9.58172 22 14 22Z" fill="white"/>
<path d="M37.426 2.876C37.7807 2.82 38.2053 2.78267 38.7 2.764C39.204 2.736 39.6427 2.722 40.016 2.722C40.3707 2.722 40.8 2.736 41.304 2.764C41.8173 2.78267 42.2513 2.82933 42.606 2.904L48.626 21.706C48.318 21.8833 47.9167 22.014 47.422 22.098C46.9367 22.1913 46.484 22.238 46.064 22.238C45.3547 22.238 44.7993 22.0747 44.398 21.748C43.9967 21.4213 43.6607 20.7773 43.39 19.816L41.388 12.718C41.1733 11.934 40.9213 11.0147 40.632 9.96C40.352 8.896 40.0907 7.89733 39.848 6.964H39.68C39.5867 7.47733 39.4607 8.05133 39.302 8.686C39.1433 9.32067 38.9753 9.95533 38.798 10.59C38.63 11.2153 38.4713 11.7847 38.322 12.298L35.466 22.028C35.186 22.0933 34.8873 22.1353 34.57 22.154C34.2527 22.1727 33.9167 22.182 33.562 22.182C33.226 22.182 32.8433 22.1587 32.414 22.112C31.994 22.0653 31.658 21.9953 31.406 21.902L31.238 21.65L37.426 2.876ZM37.762 17.996C37.6313 17.996 37.4773 17.996 37.3 17.996C37.132 17.9867 36.9593 17.982 36.782 17.982C36.614 17.9727 36.4647 17.968 36.334 17.968H33.982L35.34 14.482H37.412C37.5427 14.482 37.692 14.482 37.86 14.482C38.028 14.4727 38.196 14.468 38.364 14.468C38.532 14.4587 38.6813 14.454 38.812 14.454H40.856C40.996 14.454 41.1453 14.4587 41.304 14.468C41.472 14.468 41.64 14.4727 41.808 14.482C41.9853 14.482 42.1393 14.482 42.27 14.482H44.412L45.546 17.968H43.194C43.0633 17.968 42.9093 17.9727 42.732 17.982C42.5547 17.982 42.3773 17.9867 42.2 17.996C42.032 17.996 41.8827 17.996 41.752 17.996H37.762ZM51.1795 2.82C52.2995 2.80133 53.4055 2.78267 54.4975 2.764C55.5988 2.736 56.6441 2.722 57.6335 2.722C58.9401 2.722 60.0835 2.89933 61.0635 3.254C62.0435 3.60867 62.8088 4.164 63.3595 4.92C63.9101 5.66667 64.1855 6.628 64.1855 7.804C64.1855 8.48533 64.0268 9.12467 63.7095 9.722C63.4015 10.3193 62.9908 10.814 62.4775 11.206C61.9641 11.598 61.3948 11.8313 60.7695 11.906V11.458C61.5255 11.5047 62.2301 11.766 62.8835 12.242C63.5461 12.718 64.0781 13.3293 64.4795 14.076C64.8808 14.8227 65.0815 15.63 65.0815 16.498C65.0815 17.8047 64.7968 18.878 64.2275 19.718C63.6581 20.5487 62.8461 21.1647 61.7915 21.566C60.7461 21.958 59.5095 22.154 58.0815 22.154C56.9988 22.154 55.8741 22.14 54.7075 22.112C53.5501 22.0933 52.3741 22.0747 51.1795 22.056L50.9835 21.86V3.016L51.1795 2.82ZM55.3935 19.046C55.8508 19.0273 56.2848 19.018 56.6955 19.018C57.1061 19.018 57.4608 19.018 57.7595 19.018C58.3288 19.018 58.7955 18.934 59.1595 18.766C59.5328 18.598 59.8221 18.3787 60.0275 18.108C60.2328 17.8373 60.3775 17.5433 60.4615 17.226C60.5455 16.9087 60.5875 16.6053 60.5875 16.316C60.5875 15.9053 60.5035 15.49 60.3355 15.07C60.1768 14.6407 59.8875 14.2813 59.4675 13.992C59.0568 13.7027 58.4781 13.558 57.7315 13.558H53.7135V10.38H57.4095C58.0441 10.38 58.5341 10.268 58.8795 10.044C59.2248 9.81067 59.4675 9.52133 59.6075 9.176C59.7475 8.83067 59.8175 8.476 59.8175 8.112C59.8175 7.73867 59.7475 7.384 59.6075 7.048C59.4675 6.712 59.2201 6.43667 58.8655 6.222C58.5201 5.998 58.0348 5.886 57.4095 5.886C57.1668 5.886 56.8588 5.886 56.4855 5.886C56.1121 5.87667 55.7481 5.86733 55.3935 5.858V19.046ZM79.7047 18.01C79.7047 18.458 79.7747 18.864 79.9147 19.228C80.064 19.592 80.2554 19.858 80.4887 20.026C80.414 20.418 80.2414 20.8287 79.9707 21.258C79.7 21.6873 79.4294 22.0093 79.1587 22.224C77.9174 22.2053 76.9654 21.7807 76.3027 20.95C75.6494 20.1193 75.3227 19.1207 75.3227 17.954V8.028C75.6214 7.972 75.9667 7.93 76.3587 7.902C76.76 7.874 77.1474 7.86 77.5207 7.86C77.8847 7.86 78.258 7.874 78.6407 7.902C79.0327 7.93 79.3874 7.972 79.7047 8.028V18.01ZM67.6647 11.528C67.6647 10.9773 67.6087 10.464 67.4967 9.988C67.394 9.512 67.2167 9.09667 66.9647 8.742C67.2914 8.47133 67.6927 8.24733 68.1687 8.07C68.6447 7.89267 69.1534 7.804 69.6947 7.804C70.572 7.804 71.1834 8.03733 71.5287 8.504C71.874 8.97067 72.0467 9.638 72.0467 10.506V16.47C72.0467 17.0953 72.1307 17.562 72.2987 17.87C72.4667 18.1687 72.7794 18.318 73.2367 18.318C73.526 18.318 73.862 18.2433 74.2447 18.094C74.6274 17.9353 75.0054 17.6787 75.3787 17.324C75.7614 16.9693 76.0927 16.5027 76.3727 15.924V19.746C75.7194 20.39 75.0054 20.9687 74.2307 21.482C73.4654 21.9953 72.5834 22.252 71.5847 22.252C70.7354 22.252 70.0167 22.042 69.4287 21.622C68.85 21.1927 68.4114 20.6047 68.1127 19.858C67.814 19.1113 67.6647 18.248 67.6647 17.268V11.528ZM87.3719 22C87.0639 22.056 86.7185 22.0933 86.3359 22.112C85.9625 22.14 85.5845 22.154 85.2019 22.154C84.8379 22.154 84.4739 22.14 84.1099 22.112C83.7552 22.0933 83.4145 22.056 83.0879 22V1.588L83.2839 1.392H84.9919C85.8505 1.392 86.4619 1.588 86.8259 1.98C87.1899 2.372 87.3719 3.05333 87.3719 4.024V22ZM94.5119 18.472C94.7452 19.1907 94.9552 19.718 95.1419 20.054C95.3285 20.3807 95.5665 20.6467 95.8559 20.852C95.5105 21.244 95.0765 21.5707 94.5539 21.832C94.0312 22.0933 93.4852 22.224 92.9159 22.224C92.2905 22.224 91.8192 22.0747 91.5019 21.776C91.1939 21.4773 90.9232 20.978 90.6899 20.278L89.8639 17.856C89.6679 17.2587 89.4439 16.8667 89.1919 16.68C88.9399 16.4933 88.6225 16.4 88.2399 16.4C87.8385 16.4 87.4885 16.414 87.1899 16.442C86.8912 16.47 86.5879 16.5073 86.2799 16.554L85.1459 16.694V13.684H89.5419C90.5592 13.684 91.4459 13.8987 92.2019 14.328C92.9579 14.7573 93.4992 15.4573 93.8259 16.428L94.5119 18.472ZM92.9579 12.368C92.5285 13.1893 91.9125 13.81 91.1099 14.23C90.3165 14.6407 89.3132 14.846 88.0999 14.846H85.6779V12.844L87.8059 12.816C88.0112 12.816 88.1652 12.7833 88.2679 12.718C88.3799 12.6527 88.4919 12.522 88.6039 12.326L90.0599 9.512C90.3212 8.98933 90.6432 8.59267 91.0259 8.322C91.4179 8.05133 91.9079 7.916 92.4959 7.916C92.9625 7.916 93.3872 7.92067 93.7699 7.93C94.1525 7.93933 94.5445 7.95333 94.9459 7.972L95.1139 8.196L92.9579 12.368ZM102.028 22C101.72 22.056 101.379 22.0933 101.006 22.112C100.633 22.14 100.25 22.154 99.8581 22.154C99.5128 22.154 99.1581 22.14 98.7941 22.112C98.4301 22.0933 98.0801 22.056 97.7441 22V1.588L97.9401 1.392H99.6481C100.507 1.392 101.118 1.588 101.482 1.98C101.846 2.372 102.028 3.05333 102.028 4.024V22ZM109.686 18.5C109.686 19.0413 109.737 19.5547 109.84 20.04C109.943 20.516 110.12 20.9313 110.372 21.286C110.055 21.5473 109.658 21.7713 109.182 21.958C108.706 22.1353 108.193 22.224 107.642 22.224C106.765 22.224 106.153 21.9907 105.808 21.524C105.472 21.0573 105.304 20.39 105.304 19.522V13.558C105.304 12.9233 105.22 12.4567 105.052 12.158C104.884 11.85 104.567 11.696 104.1 11.696C103.811 11.696 103.475 11.7753 103.092 11.934C102.719 12.0927 102.341 12.3493 101.958 12.704C101.585 13.0493 101.258 13.516 100.978 14.104V10.282C101.631 9.638 102.341 9.05933 103.106 8.546C103.881 8.03267 104.767 7.776 105.766 7.776C106.615 7.776 107.329 7.99067 107.908 8.42C108.496 8.84 108.939 9.42333 109.238 10.17C109.537 10.9167 109.686 11.78 109.686 12.76V18.5ZM112.121 18.178C112.121 17.0487 112.383 16.1293 112.905 15.42C113.428 14.7013 114.109 14.1693 114.949 13.824C115.799 13.4787 116.704 13.306 117.665 13.306C118.085 13.306 118.613 13.3153 119.247 13.334C119.891 13.3527 120.47 13.4133 120.983 13.516V16.288C120.582 16.1947 120.097 16.1433 119.527 16.134C118.967 16.1153 118.501 16.106 118.127 16.106C117.502 16.106 117.054 16.274 116.783 16.61C116.513 16.9367 116.377 17.3613 116.377 17.884C116.377 18.2573 116.489 18.57 116.713 18.822C116.947 19.0647 117.264 19.186 117.665 19.186C118.225 19.186 118.795 18.9853 119.373 18.584C119.952 18.1827 120.442 17.632 120.843 16.932L121.459 19.704C121.095 20.1333 120.68 20.558 120.213 20.978C119.747 21.3887 119.201 21.7293 118.575 22C117.95 22.2707 117.217 22.406 116.377 22.406C115.416 22.406 114.618 22.196 113.983 21.776C113.358 21.3467 112.891 20.81 112.583 20.166C112.275 19.5127 112.121 18.85 112.121 18.178ZM124.819 19.97C124.745 20.362 124.572 20.782 124.301 21.23C124.031 21.678 123.76 22.0093 123.489 22.224C122.668 22.2053 121.987 22.0187 121.445 21.664C120.913 21.3093 120.503 20.8753 120.213 20.362C119.933 19.8393 119.751 19.3307 119.667 18.836V12.844C119.667 12.2653 119.518 11.8267 119.219 11.528C118.93 11.22 118.468 11.066 117.833 11.066C117.236 11.066 116.583 11.164 115.873 11.36C115.164 11.5467 114.441 11.7473 113.703 11.962C113.395 11.6073 113.153 11.15 112.975 10.59C112.807 10.0207 112.7 9.46533 112.653 8.924C113.288 8.66267 113.988 8.44333 114.753 8.266C115.519 8.07933 116.279 7.93933 117.035 7.846C117.791 7.74333 118.468 7.692 119.065 7.692C119.887 7.692 120.675 7.846 121.431 8.154C122.187 8.45267 122.808 8.952 123.293 9.652C123.788 10.3427 124.035 11.2807 124.035 12.466V18.164C124.035 18.5653 124.101 18.92 124.231 19.228C124.362 19.536 124.558 19.7833 124.819 19.97ZM136.739 8.07C136.739 8.58333 136.645 9.24133 136.459 10.044C136.272 10.8373 136.001 11.542 135.647 12.158C135.404 12.0647 135.161 11.9947 134.919 11.948C134.685 11.892 134.447 11.864 134.205 11.864C133.831 11.864 133.495 11.934 133.197 12.074C132.898 12.2047 132.627 12.4007 132.385 12.662C132.142 12.9233 131.913 13.2453 131.699 13.628C131.484 14.0107 131.279 14.4493 131.083 14.944L130.593 14.286C130.639 13.5113 130.737 12.746 130.887 11.99C131.036 11.2247 131.265 10.5293 131.573 9.904C131.881 9.27867 132.301 8.77933 132.833 8.406C133.374 8.02333 134.055 7.832 134.877 7.832C135.306 7.832 135.651 7.85533 135.913 7.902C136.183 7.93933 136.459 7.99533 136.739 8.07ZM126.477 10.058C126.551 9.666 126.724 9.246 126.995 8.798C127.265 8.35 127.536 8.01867 127.807 7.804C129.104 7.89733 130.079 8.378 130.733 9.246C131.386 10.1047 131.778 11.234 131.909 12.634V22C131.61 22.056 131.265 22.0933 130.873 22.112C130.49 22.14 130.107 22.154 129.725 22.154C129.361 22.154 128.983 22.14 128.591 22.112C128.208 22.0933 127.853 22.056 127.527 22V12.956C127.527 12.1253 127.405 11.4767 127.163 11.01C126.929 10.534 126.701 10.2167 126.477 10.058ZM144.019 22C143.711 22.056 143.365 22.0933 142.983 22.112C142.6 22.14 142.217 22.154 141.835 22.154C141.471 22.154 141.093 22.14 140.701 22.112C140.318 22.0933 139.963 22.056 139.637 22V12.732C139.637 12.2653 139.539 11.878 139.343 11.57C139.156 11.262 138.815 11.108 138.321 11.108H137.901C137.779 10.632 137.719 10.1373 137.719 9.624C137.719 9.38133 137.733 9.12467 137.761 8.854C137.789 8.574 137.835 8.308 137.901 8.056C138.33 8.00933 138.769 7.97667 139.217 7.958C139.674 7.93 140.057 7.916 140.365 7.916H140.967C141.909 7.916 142.651 8.21933 143.193 8.826C143.743 9.42333 144.019 10.2353 144.019 11.262V22ZM138.797 4.094C138.797 3.83267 138.825 3.562 138.881 3.282C138.937 2.99267 139.016 2.71733 139.119 2.456C139.361 2.33467 139.674 2.232 140.057 2.148C140.449 2.064 140.831 2.022 141.205 2.022C141.587 2.022 141.975 2.064 142.367 2.148C142.768 2.232 143.076 2.33467 143.291 2.456C143.393 2.71733 143.473 2.99733 143.529 3.296C143.585 3.58533 143.613 3.85133 143.613 4.094C143.613 4.346 143.585 4.61667 143.529 4.906C143.473 5.19533 143.393 5.466 143.291 5.718C143.076 5.83933 142.768 5.942 142.367 6.026C141.975 6.11 141.587 6.152 141.205 6.152C140.831 6.152 140.444 6.11467 140.043 6.04C139.641 5.956 139.333 5.84867 139.119 5.718C139.016 5.466 138.937 5.19533 138.881 4.906C138.825 4.61667 138.797 4.346 138.797 4.094ZM152.358 22C152.05 22.056 151.705 22.0933 151.322 22.112C150.94 22.14 150.557 22.154 150.174 22.154C149.81 22.154 149.432 22.14 149.04 22.112C148.658 22.0933 148.303 22.056 147.976 22V12.732C147.976 12.2653 147.878 11.878 147.682 11.57C147.496 11.262 147.155 11.108 146.66 11.108H146.24C146.119 10.632 146.058 10.1373 146.058 9.624C146.058 9.38133 146.072 9.12467 146.1 8.854C146.128 8.574 146.175 8.308 146.24 8.056C146.67 8.00933 147.108 7.97667 147.556 7.958C148.014 7.93 148.396 7.916 148.704 7.916H149.306C150.249 7.916 150.991 8.21933 151.532 8.826C152.083 9.42333 152.358 10.2353 152.358 11.262V22ZM147.136 4.094C147.136 3.83267 147.164 3.562 147.22 3.282C147.276 2.99267 147.356 2.71733 147.458 2.456C147.701 2.33467 148.014 2.232 148.396 2.148C148.788 2.064 149.171 2.022 149.544 2.022C149.927 2.022 150.314 2.064 150.706 2.148C151.108 2.232 151.416 2.33467 151.63 2.456C151.733 2.71733 151.812 2.99733 151.868 3.296C151.924 3.58533 151.952 3.85133 151.952 4.094C151.952 4.346 151.924 4.61667 151.868 4.906C151.812 5.19533 151.733 5.466 151.63 5.718C151.416 5.83933 151.108 5.942 150.706 6.026C150.314 6.11 149.927 6.152 149.544 6.152C149.171 6.152 148.784 6.11467 148.382 6.04C147.981 5.956 147.673 5.84867 147.458 5.718C147.356 5.466 147.276 5.19533 147.22 4.906C147.164 4.61667 147.136 4.346 147.136 4.094Z" fill="white"/>
</g>
<defs>
<clipPath id="clip0_11_3">
<rect width="154" height="28" fill="white"/>
</clipPath>
</defs>
</svg>
