<svg width="154" height="28" viewBox="0 0 154 28" fill="none" xmlns="http://www.w3.org/2000/svg">
<g clip-path="url(#clip0_11_3)">
<path d="M12 4H16L14 0L12 4Z" fill="white"/>
<path d="M19.6569 5.51471L22.4853 8.34313L23.8995 4.10049L19.6569 5.51471Z" fill="white"/>
<path d="M24 12V16L28 14L24 12Z" fill="white"/>
<path d="M22.4853 19.6569L19.6569 22.4853L23.8995 23.8995L22.4853 19.6569Z" fill="white"/>
<path d="M16 24H12L14 28L16 24Z" fill="white"/>
<path d="M8.34314 22.4853L5.51471 19.6569L4.1005 23.8995L8.34314 22.4853Z" fill="white"/>
<path d="M4 16L4 12L0 14L4 16Z" fill="white"/>
<path d="M5.51472 8.34314L8.34315 5.51471L4.10051 4.1005L5.51472 8.34314Z" fill="white"/>
<path d="M14 22C18.4183 22 22 18.4183 22 14C22 9.58172 18.4183 6 14 6C9.58172 6 6 9.58172 6 14C6 18.4183 9.58172 22 14 22Z" fill="white"/>
<path d="M48.654 12.424C48.654 13.516 48.5747 14.566 48.416 15.574C48.2667 16.582 47.968 17.5247 47.52 18.402C47.072 19.2793 46.4 20.0633 45.504 20.754C45.0747 21.09 44.5567 21.3607 43.95 21.566C43.3433 21.7713 42.7227 21.9207 42.088 22.014C41.4627 22.1167 40.8887 22.168 40.366 22.168C39.5633 22.168 38.7747 22.1633 38 22.154C37.2347 22.1447 36.4647 22.1307 35.69 22.112C34.9247 22.0933 34.136 22.0747 33.324 22.056L33.128 21.86V3.016L33.324 2.82C34.1267 2.792 34.9107 2.77333 35.676 2.764C36.4507 2.74533 37.2253 2.736 38 2.736C38.7747 2.72667 39.5633 2.722 40.366 2.722C40.8887 2.722 41.4673 2.76867 42.102 2.862C42.7367 2.95533 43.3573 3.10467 43.964 3.31C44.5707 3.51533 45.084 3.786 45.504 4.122C46.3907 4.81267 47.058 5.59667 47.506 6.474C47.954 7.35133 48.2573 8.294 48.416 9.302C48.5747 10.3007 48.654 11.3413 48.654 12.424ZM44.048 12.424C44.048 11.7147 44.0013 10.996 43.908 10.268C43.824 9.53067 43.656 8.85867 43.404 8.252C43.152 7.636 42.7833 7.14133 42.298 6.768C41.8127 6.38533 41.1687 6.194 40.366 6.194C39.89 6.194 39.4327 6.194 38.994 6.194C38.5553 6.18467 38.0887 6.17533 37.594 6.166V18.696C38.0887 18.6867 38.5553 18.682 38.994 18.682C39.4327 18.682 39.89 18.682 40.366 18.682C41.1687 18.682 41.8127 18.4953 42.298 18.122C42.7833 17.7393 43.152 17.24 43.404 16.624C43.656 15.9987 43.824 15.322 43.908 14.594C44.0013 13.8567 44.048 13.1333 44.048 12.424ZM53.1471 28.132C52.5871 28.132 51.9758 28.0713 51.3131 27.95C50.6505 27.8287 50.1278 27.698 49.7451 27.558C49.6985 27.0633 49.7591 26.5033 49.9271 25.878C50.1045 25.2527 50.3378 24.772 50.6271 24.436C50.9258 24.5293 51.3038 24.6227 51.7611 24.716C52.2278 24.8187 52.6898 24.87 53.1471 24.87C53.6231 24.87 54.0385 24.7767 54.3931 24.59C54.7571 24.4127 55.0605 24.1513 55.3031 23.806C55.5551 23.47 55.7511 23.0687 55.8911 22.602L56.0031 22.182C55.2471 22.182 54.6171 22.056 54.1131 21.804C53.6091 21.5427 53.2685 21.0853 53.0911 20.432L49.8291 8.364C50.2771 8.15867 50.7485 8.00933 51.2431 7.916C51.7378 7.82267 52.1671 7.776 52.5311 7.776C53.0631 7.776 53.5018 7.91133 53.8471 8.182C54.2018 8.44333 54.4678 8.93333 54.6451 9.652L55.9611 15.042C56.0451 15.35 56.1245 15.7373 56.1991 16.204C56.2738 16.6613 56.3438 17.1187 56.4091 17.576C56.4838 18.024 56.5398 18.402 56.5771 18.71C56.5958 18.8407 56.6751 18.906 56.8151 18.906L59.2511 8.042C59.4938 7.97667 59.7738 7.93 60.0911 7.902C60.4178 7.874 60.7118 7.86 60.9731 7.86C61.3558 7.86 61.7431 7.88333 62.1351 7.93C62.5271 7.96733 62.9191 8.05133 63.3111 8.182L63.4791 8.462L60.0211 21.622C59.6851 22.8913 59.2605 24.016 58.7471 24.996C58.2338 25.976 57.5338 26.7413 56.6471 27.292C55.7698 27.852 54.6031 28.132 53.1471 28.132ZM66.7228 6.446C66.7228 5.466 66.9001 4.78467 67.2548 4.402C67.6188 4.01 68.2301 3.814 69.0888 3.814H70.7968L70.9928 4.01V17.492C70.9928 17.912 71.0861 18.2387 71.2728 18.472C71.4688 18.696 71.7908 18.808 72.2388 18.808H73.8068C73.9094 19.116 73.9888 19.4567 74.0448 19.83C74.1101 20.194 74.1428 20.544 74.1428 20.88C74.1428 21.0387 74.1381 21.2067 74.1288 21.384C74.1194 21.5613 74.0914 21.7247 74.0448 21.874C73.5314 21.9393 72.9388 22 72.2668 22.056C71.5948 22.112 70.9788 22.14 70.4188 22.14C69.1494 22.14 68.2161 21.8273 67.6188 21.202C67.0214 20.5673 66.7228 19.5827 66.7228 18.248V6.446ZM74.3108 8C74.4414 8.49467 74.5068 9.00333 74.5068 9.526C74.5068 9.78733 74.4928 10.0533 74.4648 10.324C74.4368 10.5853 74.3854 10.8467 74.3108 11.108L69.0888 11.024L64.5248 11.108C64.4034 10.6133 64.3427 10.086 64.3427 9.526C64.3427 9.022 64.4034 8.51333 64.5248 8L69.2148 8.07L74.3108 8ZM81.3674 2.876C81.7221 2.82 82.1467 2.78267 82.6414 2.764C83.1454 2.736 83.5841 2.722 83.9574 2.722C84.3121 2.722 84.7414 2.736 85.2454 2.764C85.7587 2.78267 86.1927 2.82933 86.5474 2.904L92.5674 21.706C92.2594 21.8833 91.8581 22.014 91.3634 22.098C90.8781 22.1913 90.4254 22.238 90.0054 22.238C89.2961 22.238 88.7407 22.0747 88.3394 21.748C87.9381 21.4213 87.6021 20.7773 87.3314 19.816L85.3294 12.718C85.1147 11.934 84.8627 11.0147 84.5734 9.96C84.2934 8.896 84.0321 7.89733 83.7894 6.964H83.6214C83.5281 7.47733 83.4021 8.05133 83.2434 8.686C83.0847 9.32067 82.9167 9.95533 82.7394 10.59C82.5714 11.2153 82.4127 11.7847 82.2634 12.298L79.4074 22.028C79.1274 22.0933 78.8287 22.1353 78.5114 22.154C78.1941 22.1727 77.8581 22.182 77.5034 22.182C77.1674 22.182 76.7847 22.1587 76.3554 22.112C75.9354 22.0653 75.5994 21.9953 75.3474 21.902L75.1794 21.65L81.3674 2.876ZM81.7034 17.996C81.5727 17.996 81.4187 17.996 81.2414 17.996C81.0734 17.9867 80.9007 17.982 80.7234 17.982C80.5554 17.9727 80.4061 17.968 80.2754 17.968H77.9234L79.2814 14.482H81.3534C81.4841 14.482 81.6334 14.482 81.8014 14.482C81.9694 14.4727 82.1374 14.468 82.3054 14.468C82.4734 14.4587 82.6227 14.454 82.7534 14.454H84.7974C84.9374 14.454 85.0867 14.4587 85.2454 14.468C85.4134 14.468 85.5814 14.4727 85.7494 14.482C85.9267 14.482 86.0807 14.482 86.2114 14.482H88.3534L89.4874 17.968H87.1354C87.0047 17.968 86.8507 17.9727 86.6734 17.982C86.4961 17.982 86.3187 17.9867 86.1414 17.996C85.9734 17.996 85.8241 17.996 85.6934 17.996H81.7034ZM96.3109 7.832C97.1509 7.832 97.7809 8.12133 98.2009 8.7C98.6302 9.26933 98.8449 10.0393 98.8449 11.01V22C98.5369 22.056 98.1869 22.0933 97.7949 22.112C97.4122 22.14 97.0342 22.154 96.6609 22.154C96.2969 22.154 95.9189 22.14 95.5269 22.112C95.1442 22.0933 94.7895 22.056 94.4629 22V8.028L94.6589 7.832H96.3109ZM106.503 18.5C106.503 19.0413 106.554 19.5547 106.657 20.04C106.76 20.516 106.942 20.9313 107.203 21.286C106.886 21.5473 106.489 21.7713 106.013 21.958C105.537 22.1353 105.024 22.224 104.473 22.224C103.596 22.224 102.984 21.9907 102.639 21.524C102.294 21.0573 102.121 20.39 102.121 19.522V13.558C102.121 12.9233 102.037 12.4567 101.869 12.158C101.71 11.85 101.398 11.696 100.931 11.696C100.642 11.696 100.306 11.7753 99.9229 11.934C99.5495 12.0927 99.1715 12.3493 98.7889 12.704C98.4155 13.0493 98.0842 13.516 97.7949 14.104V10.268C98.4575 9.63333 99.1715 9.05933 99.9369 8.546C100.712 8.03267 101.594 7.776 102.583 7.776C103.442 7.776 104.16 7.99067 104.739 8.42C105.318 8.84 105.756 9.42333 106.055 10.17C106.354 10.9167 106.503 11.78 106.503 12.76V18.5ZM116.005 18.808C116.108 19.116 116.192 19.452 116.257 19.816C116.323 20.1707 116.355 20.5253 116.355 20.88C116.355 21.0387 116.346 21.2067 116.327 21.384C116.318 21.5613 116.29 21.7247 116.243 21.874C115.823 21.9393 115.352 22 114.829 22.056C114.307 22.112 113.775 22.14 113.233 22.14C111.964 22.14 111.063 21.8273 110.531 21.202C110.009 20.5673 109.747 19.5827 109.747 18.248V1.588L109.943 1.392H111.651C112.51 1.392 113.121 1.588 113.485 1.98C113.849 2.372 114.031 3.05333 114.031 4.024V17.478C114.031 17.9073 114.125 18.2387 114.311 18.472C114.498 18.696 114.806 18.808 115.235 18.808H116.005ZM120.003 28.132C119.443 28.132 118.831 28.0713 118.169 27.95C117.506 27.8287 116.983 27.698 116.601 27.558C116.554 27.0633 116.615 26.5033 116.783 25.878C116.96 25.2527 117.193 24.772 117.483 24.436C117.781 24.5293 118.159 24.6227 118.617 24.716C119.083 24.8187 119.545 24.87 120.003 24.87C120.479 24.87 120.894 24.7767 121.249 24.59C121.613 24.4127 121.916 24.1513 122.159 23.806C122.411 23.47 122.607 23.0687 122.747 22.602L122.859 22.182C122.103 22.182 121.473 22.056 120.969 21.804C120.465 21.5427 120.124 21.0853 119.947 20.432L116.685 8.364C117.133 8.15867 117.604 8.00933 118.099 7.916C118.593 7.82267 119.023 7.776 119.387 7.776C119.919 7.776 120.357 7.91133 120.703 8.182C121.057 8.44333 121.323 8.93333 121.501 9.652L122.817 15.042C122.901 15.35 122.98 15.7373 123.055 16.204C123.129 16.6613 123.199 17.1187 123.265 17.576C123.339 18.024 123.395 18.402 123.433 18.71C123.451 18.8407 123.531 18.906 123.671 18.906L126.107 8.042C126.349 7.97667 126.629 7.93 126.947 7.902C127.273 7.874 127.567 7.86 127.829 7.86C128.211 7.86 128.599 7.88333 128.991 7.93C129.383 7.96733 129.775 8.05133 130.167 8.182L130.335 8.462L126.877 21.622C126.541 22.8913 126.116 24.016 125.603 24.996C125.089 25.976 124.389 26.7413 123.503 27.292C122.625 27.852 121.459 28.132 120.003 28.132ZM131.023 21.034C131.041 20.5673 131.167 20.0447 131.401 19.466C131.643 18.8873 131.928 18.43 132.255 18.094C132.861 18.4113 133.491 18.6867 134.145 18.92C134.807 19.144 135.465 19.256 136.119 19.256C136.66 19.256 137.066 19.1627 137.337 18.976C137.617 18.7893 137.757 18.556 137.757 18.276C137.757 18.0053 137.654 17.7673 137.449 17.562C137.253 17.3473 136.931 17.1607 136.483 17.002L134.929 16.442C134.275 16.1993 133.683 15.896 133.151 15.532C132.619 15.1587 132.199 14.706 131.891 14.174C131.583 13.6327 131.429 12.9887 131.429 12.242C131.429 11.29 131.653 10.4687 132.101 9.778C132.549 9.08733 133.179 8.55533 133.991 8.182C134.803 7.79933 135.755 7.608 136.847 7.608C137.733 7.608 138.662 7.72933 139.633 7.972C140.603 8.21467 141.392 8.48533 141.999 8.784C142.017 9.12 141.975 9.49333 141.873 9.904C141.77 10.3147 141.621 10.6927 141.425 11.038C141.238 11.3833 141.028 11.6447 140.795 11.822C140.216 11.5607 139.586 11.3227 138.905 11.108C138.223 10.884 137.551 10.772 136.889 10.772C136.515 10.772 136.231 10.8607 136.035 11.038C135.839 11.2153 135.741 11.4253 135.741 11.668C135.741 11.9107 135.825 12.116 135.993 12.284C136.161 12.452 136.431 12.6013 136.805 12.732L138.541 13.348C139.605 13.7213 140.491 14.2673 141.201 14.986C141.91 15.7047 142.265 16.6613 142.265 17.856C142.265 19.2467 141.728 20.3527 140.655 21.174C139.591 21.9953 138.111 22.406 136.217 22.406C135.218 22.406 134.266 22.2707 133.361 22C132.465 21.7293 131.685 21.4073 131.023 21.034ZM145.145 6.446C145.145 5.466 145.322 4.78467 145.677 4.402C146.041 4.01 146.652 3.814 147.511 3.814H149.219L149.415 4.01V17.492C149.415 17.912 149.508 18.2387 149.695 18.472C149.891 18.696 150.213 18.808 150.661 18.808H152.229C152.331 19.116 152.411 19.4567 152.467 19.83C152.532 20.194 152.565 20.544 152.565 20.88C152.565 21.0387 152.56 21.2067 152.551 21.384C152.541 21.5613 152.513 21.7247 152.467 21.874C151.953 21.9393 151.361 22 150.689 22.056C150.017 22.112 149.401 22.14 148.841 22.14C147.571 22.14 146.638 21.8273 146.041 21.202C145.443 20.5673 145.145 19.5827 145.145 18.248V6.446ZM152.733 8C152.863 8.49467 152.929 9.00333 152.929 9.526C152.929 9.78733 152.915 10.0533 152.887 10.324C152.859 10.5853 152.807 10.8467 152.733 11.108L147.511 11.024L142.947 11.108C142.825 10.6133 142.765 10.086 142.765 9.526C142.765 9.022 142.825 8.51333 142.947 8L147.637 8.07L152.733 8Z" fill="white"/>
</g>
<defs>
<clipPath id="clip0_11_3">
<rect width="154" height="28" fill="white"/>
</clipPath>
</defs>
</svg>
